<?xml version="1.0" encoding="UTF-8"?>
<svg width="64" height="64" viewBox="0 0 64 64" xmlns="http://www.w3.org/2000/svg">
  <rect width="100%" height="100%" fill="#0A0A0A"/>
  <line x1="22.83" y1="22.83" x2="41.17" y2="41.17" stroke="#64FFDA" stroke-width="1" stroke-linecap="round"/><path d="M 9.00 38.38 L 9.50 38.94 L 10.00 39.48 L 10.50 40.00 L 11.00 40.49 L 11.50 40.95 L 12.00 41.38 L 12.50 41.79 L 13.00 42.16 L 13.50 42.50 L 14.00 42.81 L 14.50 43.09 L 15.00 43.33 L 15.50 43.53 L 16.00 43.70 L 16.50 43.83 L 17.00 43.92 L 17.50 43.98 L 18.00 44.00 L 18.50 43.98 L 19.00 43.92 L 19.50 43.83 L 20.00 43.70 L 20.50 43.53 L 21.00 43.33 L 21.50 43.09 L 22.00 42.81 L 22.50 42.50 L 23.00 42.16 L 23.50 41.79 L 24.00 41.38 L 24.50 40.95 L 25.00 40.49 L 25.50 40.00 L 26.00 39.48 L 26.50 38.94 L 27.00 38.38 L 27.50 37.80 L 28.00 37.21 L 28.50 36.59 L 29.00 35.96 L 29.50 35.32 L 30.00 34.67 L 30.50 34.01 L 31.00 33.34 L 31.50 32.67 L 32.00 32.00 L 32.50 31.33 L 33.00 30.66 L 33.50 29.99 L 34.00 29.33 L 34.50 28.68 L 35.00 28.04 L 35.50 27.41 L 36.00 26.79 L 36.50 26.20 L 37.00 25.62 L 37.50 25.06 L 38.00 24.52 L 38.50 24.00 L 39.00 23.51 L 39.50 23.05 L 40.00 22.62 L 40.50 22.21 L 41.00 21.84 L 41.50 21.50 L 42.00 21.19 L 42.50 20.91 L 43.00 20.67 L 43.50 20.47 L 44.00 20.30 L 44.50 20.17 L 45.00 20.08 L 45.50 20.02 L 46.00 20.00 L 46.50 20.02 L 47.00 20.08 L 47.50 20.17 L 48.00 20.30 L 48.50 20.47 L 49.00 20.67 L 49.50 20.91 L 50.00 21.19 L 50.50 21.50 L 51.00 21.84 L 51.50 22.21 L 52.00 22.62 L 52.50 23.05 L 53.00 23.51 L 53.50 24.00 L 54.00 24.52 L 54.50 25.06 L 55.00 25.62" stroke="#64FFDA" stroke-width="2" stroke-linecap="round" stroke-linejoin="round" fill="none"/><path d="M 23.46 18.00 L 23.46 22.00 L 20.00 24.00 L 16.54 22.00 L 16.54 18.00 L 20.00 16.00 Z" stroke="#64FFDA" stroke-width="1" fill="none"/><path d="M 38.06 28.50 L 38.06 35.50 L 32.00 39.00 L 25.94 35.50 L 25.94 28.50 L 32.00 25.00 Z" fill="#64FFDA"/><path d="M 47.46 42.00 L 47.46 46.00 L 44.00 48.00 L 40.54 46.00 L 40.54 42.00 L 44.00 40.00 Z" stroke="#64FFDA" stroke-width="1" fill="none"/><circle cx="4.00" cy="29.00" r="2.50" stroke="#64FFDA" stroke-width="2" fill="none"/><path d="M 1.00 35.50 Q 1.00 32.50 4.00 32.50 Q 7.00 32.50 7.00 35.50" stroke="#64FFDA" stroke-width="2" fill="none" stroke-linecap="round"/><circle cx="60.00" cy="29.00" r="2.50" stroke="#64FFDA" stroke-width="2" fill="none"/><path d="M 57.00 35.50 Q 57.00 32.50 60.00 32.50 Q 63.00 32.50 63.00 35.50" stroke="#64FFDA" stroke-width="2" fill="none" stroke-linecap="round"/>
</svg>